<svg xmlns="http://www.w3.org/2000/svg" viewBox="0 0 720 440"><circle cx="360" cy="220" r="180" fill="#e6e8ff"/><path d="M196 237c-36-5-65-36-65-74 0-42 34-76 76-76h85" fill="none" stroke="#5865f2" stroke-width="25" stroke-linecap="round"/><path d="M524 237c36-5 65-36 65-74 0-42-34-76-76-76h-85" fill="none" stroke="#5865f2" stroke-width="25" stroke-linecap="round"/><rect x="220" y="104" width="280" height="229" rx="32" fill="#fff"/><rect x="246" y="132" width="103" height="78" rx="16" fill="#f1c24a"/><circle cx="297" cy="161" r="18" fill="#8e593d"/><path d="M267 201c8-25 52-25 60 0" fill="#5865f2"/><rect x="371" y="132" width="103" height="78" rx="16" fill="#65d7ac"/><circle cx="422" cy="161" r="18" fill="#f0b28e"/><path d="M392 201c8-25 52-25 60 0" fill="#4752c4"/><rect x="246" y="232" width="228" height="73" rx="18" fill="#eff0f6"/><circle cx="291" cy="269" r="23" fill="#ed657c"/><path d="M333 257h104M333 280h72" stroke="#aeb3c8" stroke-width="11" stroke-linecap="round"/><circle cx="175" cy="338" r="35" fill="#f2b795"/><circle cx="545" cy="338" r="35" fill="#8e593d"/><path d="M124 410c9-57 93-57 102 0M494 410c9-57 93-57 102 0" fill="#23272a"/></svg>
